<svg width="20" height="20" viewBox="0 0 20 20" fill="none" xmlns="http://www.w3.org/2000/svg">
<path d="M7.22656 11.9413C7.22656 13.0162 8.05144 13.8827 9.07629 13.8827H11.1677C12.0592 13.8827 12.7841 13.1245 12.7841 12.1913C12.7841 11.1748 12.3425 10.8165 11.6842 10.5832L8.3264 9.4167C7.66816 9.18341 7.22656 8.82512 7.22656 7.80861C7.22656 6.87541 7.95146 6.11719 8.84299 6.11719H10.9344C11.9592 6.11719 12.7841 6.98373 12.7841 8.05857" stroke="#344054" stroke-width="1.5" stroke-linecap="round" stroke-linejoin="round"/>
<path d="M10 5V14.9985" stroke="#344054" stroke-width="1.5" stroke-linecap="round" stroke-linejoin="round"/>
<path d="M12.4997 18.3322H7.50045C3.33439 18.3322 1.66797 16.6658 1.66797 12.4997V7.50045C1.66797 3.33439 3.33439 1.66797 7.50045 1.66797H12.4997C16.6658 1.66797 18.3322 3.33439 18.3322 7.50045V12.4997C18.3322 16.6658 16.6658 18.3322 12.4997 18.3322Z" stroke="#344054" stroke-width="1.5" stroke-linecap="round" stroke-linejoin="round"/>
</svg>
