<svg width="16" height="16" viewBox="0 0 16 16" fill="none" xmlns="http://www.w3.org/2000/svg">
<path d="M2 2.66667V4.35442C2 4.55227 2.08788 4.7399 2.23988 4.86657L5.79383 7.8282C5.92612 7.93847 6.01062 8.0956 6.02963 8.26673L6.56103 13.0493C6.61227 13.5105 7.10713 13.7795 7.522 13.5719L9.0144 12.8249C9.2096 12.7271 9.3446 12.5401 9.3758 12.3239L9.96347 8.25313C9.987 8.0902 10.07 7.94167 10.1965 7.83627L13.7601 4.86657C13.9121 4.7399 14 4.55227 14 4.35442V2.66667C14 2.29848 13.7015 2 13.3333 2H2.66667C2.29848 2 2 2.29848 2 2.66667Z" stroke="#717E94" stroke-width="1.2" stroke-linejoin="round"/>
</svg>
