<svg width="20" height="20" viewBox="0 0 20 20" fill="none" xmlns="http://www.w3.org/2000/svg">
<path d="M12.4386 2.42716L6.8946 5.0884C6.46793 5.29321 6.01203 5.34453 5.54729 5.24041C5.24314 5.17228 5.09105 5.13821 4.96858 5.12423C3.44786 4.95057 2.5 6.15415 2.5 7.53819V8.29774C2.5 9.6818 3.44786 10.8854 4.96858 10.7117C5.09105 10.6977 5.24315 10.6636 5.54729 10.5956C6.01203 10.4914 6.46793 10.5427 6.8946 10.7476L12.4386 13.4088C13.7112 14.0197 14.3475 14.3251 15.057 14.0871C15.7664 13.849 16.0099 13.3381 16.497 12.3163C17.8343 9.51063 17.8343 6.32534 16.497 3.5196C16.0099 2.49785 15.7664 1.98698 15.057 1.74888C14.3475 1.5108 13.7112 1.81625 12.4386 2.42716Z" stroke="#344054" stroke-width="1.2" stroke-linecap="round" stroke-linejoin="round"/>
<path d="M9.54712 17.3078L8.30432 18.332C5.50299 16.1103 5.84523 15.0508 5.84523 10.832H6.79009C7.17352 13.2161 8.07797 14.3454 9.32595 15.1629C10.0947 15.6664 10.2532 16.7258 9.54712 17.3078Z" stroke="#344054" stroke-width="1.2" stroke-linecap="round" stroke-linejoin="round"/>
<path d="M6.25 10.418V5.41797" stroke="#344054" stroke-width="1.2" stroke-linecap="round" stroke-linejoin="round"/>
</svg>
