<svg width="20" height="20" viewBox="0 0 20 20" fill="none" xmlns="http://www.w3.org/2000/svg">
<path d="M7.63355 9.05855C7.55023 9.05022 7.45025 9.05022 7.35859 9.05855C5.37555 8.9919 3.80078 7.36713 3.80078 5.36743C3.80078 3.32606 5.45054 1.66797 7.50024 1.66797C9.54161 1.66797 11.1997 3.32606 11.1997 5.36743C11.1914 7.36713 9.6166 8.9919 7.63355 9.05855Z" stroke="#344054" stroke-width="1.5" stroke-linecap="round" stroke-linejoin="round"/>
<path d="M13.6747 3.33203C15.2912 3.33203 16.591 4.64017 16.591 6.24827C16.591 7.82304 15.3411 9.10619 13.783 9.16451C13.7164 9.15618 13.6414 9.15618 13.5664 9.16451" stroke="#344054" stroke-width="1.5" stroke-linecap="round" stroke-linejoin="round"/>
<path d="M3.4654 12.1319C1.44903 13.4817 1.44903 15.6813 3.4654 17.0228C5.75673 18.5559 9.51452 18.5559 11.8058 17.0228C13.8222 15.673 13.8222 13.4733 11.8058 12.1319C9.52285 10.6071 5.76507 10.6071 3.4654 12.1319Z" stroke="#344054" stroke-width="1.5" stroke-linecap="round" stroke-linejoin="round"/>
<path d="M15.2812 16.6633C15.8812 16.5383 16.4477 16.2967 16.9143 15.9384C18.2142 14.9636 18.2142 13.3555 16.9143 12.3806C16.4561 12.0307 15.8978 11.7974 15.3062 11.6641" stroke="#344054" stroke-width="1.5" stroke-linecap="round" stroke-linejoin="round"/>
</svg>
