<svg width="20" height="20" viewBox="0 0 20 20" fill="none" xmlns="http://www.w3.org/2000/svg">
<path d="M7.22549 11.6641H3.33439C2.41786 11.6641 1.66797 12.414 1.66797 13.3305V18.3298H7.22549V11.6641Z" stroke="#344054" stroke-width="1.5" stroke-miterlimit="10" stroke-linecap="round" stroke-linejoin="round"/>
<path d="M11.1059 8.33203H8.88127C7.96473 8.33203 7.21484 9.08192 7.21484 9.99845V18.3306H12.7724V9.99845C12.7724 9.08192 12.0308 8.33203 11.1059 8.33203Z" stroke="#344054" stroke-width="1.5" stroke-miterlimit="10" stroke-linecap="round" stroke-linejoin="round"/>
<path d="M16.6645 14.1641H12.7734V18.3301H18.331V15.8305C18.331 14.914 17.5811 14.1641 16.6645 14.1641Z" stroke="#344054" stroke-width="1.5" stroke-miterlimit="10" stroke-linecap="round" stroke-linejoin="round"/>
<path d="M10.4302 1.72627L10.8718 2.60947C10.9301 2.73445 11.0884 2.8511 11.2217 2.86776L12.0216 3.00108C12.5299 3.0844 12.6548 3.45933 12.2882 3.81761L11.6633 4.44252C11.555 4.55083 11.4967 4.75081 11.53 4.89246L11.705 5.65902C11.8466 6.26727 11.5217 6.50057 10.9884 6.18395L10.2385 5.74235C10.1052 5.65903 9.88025 5.65903 9.74693 5.74235L8.99704 6.18395C8.46379 6.50057 8.13883 6.26727 8.28048 5.65902L8.45546 4.89246C8.48878 4.75081 8.43046 4.5425 8.32214 4.44252L7.70556 3.82595C7.33895 3.45934 7.4556 3.09271 7.97219 3.00939L8.77207 2.8761C8.90539 2.8511 9.0637 2.73446 9.12202 2.61781L9.56362 1.73458C9.80526 1.25132 10.1885 1.25133 10.4302 1.72627Z" stroke="#344054" stroke-width="1.5" stroke-linecap="round" stroke-linejoin="round"/>
</svg>
