<svg width="24" height="24" viewBox="0 0 24 24" fill="none" xmlns="http://www.w3.org/2000/svg">
<path d="M5.47168 1.75C6.94417 1.75002 8.57316 2.58073 9.06934 4.36523L9.11426 4.54102V4.54199C9.4683 6.08165 8.93191 7.70753 7.4209 9.28418L7.10645 9.59863L7.10449 9.59961C6.65345 10.0342 6.07049 10.25 5.47168 10.25C4.95567 10.25 4.43695 10.085 4.01367 9.75293L3.83887 9.59961L3.83594 9.59766L3.51953 9.2832C2.00357 7.70835 1.47524 6.08326 1.8291 4.54297C2.27373 2.62503 3.95223 1.75 5.47168 1.75ZM5.48145 2.25C4.35713 2.25006 2.83453 2.8238 2.35742 4.49121L2.31445 4.65527V4.65918C1.87045 6.61055 3.17038 8.26522 4.18457 9.22949V9.23047C4.86698 9.88712 5.90598 9.9104 6.625 9.35254L6.76465 9.2334L6.76562 9.23242C7.78071 8.26809 9.08483 6.61047 8.62891 4.64648H8.62793C8.21674 2.8606 6.63049 2.25 5.48145 2.25Z" fill="#8D98A9" stroke="#8D98A9"/>
<path d="M5.51172 6.19922C4.96172 6.19922 4.51172 5.74922 4.51172 5.19922C4.51172 4.64922 4.95172 4.19922 5.51172 4.19922H5.52172C6.07172 4.19922 6.52172 4.64922 6.52172 5.19922C6.52172 5.74922 6.07172 6.19922 5.51172 6.19922Z" fill="#8D98A9"/>
<path d="M18.4913 22.7483C17.7813 22.7483 17.0613 22.4883 16.5013 21.9583C14.6513 20.2083 13.9013 18.2983 14.3413 16.4183C14.8513 14.2283 16.7913 13.2383 18.4913 13.2383C20.1913 13.2383 22.1313 14.2283 22.6413 16.4183C23.0713 18.2883 22.3213 20.2083 20.4713 21.9483C19.9213 22.4883 19.2113 22.7483 18.4913 22.7483ZM18.4913 14.7483C17.4713 14.7483 16.1513 15.2783 15.8013 16.7683C15.4113 18.4383 16.5313 19.9283 17.5313 20.8783C18.0613 21.3883 18.9013 21.3883 19.4413 20.8783C20.4413 19.9283 21.5613 18.4483 21.1713 16.7783C20.8413 15.2783 19.5213 14.7483 18.4913 14.7483Z" fill="#8D98A9"/>
<path d="M18.5312 18.1992C17.9812 18.1992 17.5312 17.7492 17.5312 17.1992C17.5312 16.6492 17.9712 16.1992 18.5312 16.1992H18.5413C19.0913 16.1992 19.5413 16.6492 19.5413 17.1992C19.5413 17.7492 19.0812 18.1992 18.5312 18.1992Z" fill="#8D98A9"/>
<path d="M12.0014 19.75H9.32141C8.16141 19.75 7.15141 19.05 6.75141 17.97C6.34141 16.89 6.64141 15.7 7.51141 14.93L15.5014 7.94C15.9814 7.52 15.9914 6.95 15.8514 6.56C15.7014 6.17 15.3214 5.75 14.6814 5.75H12.0014C11.5914 5.75 11.2514 5.41 11.2514 5C11.2514 4.59 11.5914 4.25 12.0014 4.25H14.6814C15.8414 4.25 16.8514 4.95 17.2514 6.03C17.6614 7.11 17.3614 8.3 16.4914 9.07L8.50141 16.06C8.02141 16.48 8.01141 17.05 8.15141 17.44C8.30141 17.83 8.68141 18.25 9.32141 18.25H12.0014C12.4114 18.25 12.7514 18.59 12.7514 19C12.7514 19.41 12.4114 19.75 12.0014 19.75Z" fill="#8D98A9"/>
<path d="M12.0014 19.75H9.32141C8.16141 19.75 7.15141 19.05 6.75141 17.97C6.34141 16.89 6.64141 15.7 7.51141 14.93L15.5014 7.94C15.9814 7.52 15.9914 6.95 15.8514 6.56C15.7014 6.17 15.3214 5.75 14.6814 5.75H12.0014C11.5914 5.75 11.2514 5.41 11.2514 5C11.2514 4.59 11.5914 4.25 12.0014 4.25H14.6814C15.8414 4.25 16.8514 4.95 17.2514 6.03C17.6614 7.11 17.3614 8.3 16.4914 9.07L8.50141 16.06C8.02141 16.48 8.01141 17.05 8.15141 17.44C8.30141 17.83 8.68141 18.25 9.32141 18.25H12.0014C12.4114 18.25 12.7514 18.59 12.7514 19C12.7514 19.41 12.4114 19.75 12.0014 19.75Z" fill="#8D98A9"/>
</svg>
